<svg id="e1MNBIhd0VT1" xmlns="http://www.w3.org/2000/svg" xmlns:xlink="http://www.w3.org/1999/xlink" viewBox="0 0 300 300" shape-rendering="geometricPrecision" text-rendering="geometricPrecision" project-id="f380deb2c74f4340a20af1b67c03114b" export-id="bd105bc28622495b9c65da02c76a3ac6" cached="false"><ellipse rx="71.330447" ry="71.330447" transform="matrix(2.102889 0 0 2.102891 149.999988 150.000155)" stroke-width="0"/><g transform="translate(-.000002 0)" mask="url(#e1MNBIhd0VT5)"><ellipse rx="101.703878" ry="101.703878" transform="matrix(1.316294 0 0 1.316294 150.000001 150.000155)" fill="#fff" stroke-width="0"/><mask id="e1MNBIhd0VT5" mask-type="luminance" x="-150%" y="-150%" height="400%" width="400%"><path d="M150.01003,150l-.010045.000155L23.064824,39.968539L76.046181,0L150.01003,150Z" transform="matrix(-1 0 0-1 300.010018 300)" fill="#fff" stroke-width="0.6"/><path d="M150.01003,150l-.010045.000155L23.064824,39.968539L76.046181,0L150.01003,150Z" transform="translate(.000003 0)" fill="#fff" stroke-width="0.6"/></mask></g><ellipse rx="87.942205" ry="87.942205" transform="matrix(.903803 0 0 0.903803 149.999988 150)" stroke-width="0"/><ellipse rx="106.75436" ry="106.75436" transform="matrix(.658236 0 0 0.658236 150 150)" fill="#fff" stroke-width="0"/><ellipse rx="57.46145" ry="57.46145" transform="matrix(1.0503 0 0 1.0503 150 150.000155)" stroke-width="0"/><ellipse rx="106.75436" ry="106.75436" transform="matrix(.516075 0 0 0.516075 150 150)" fill="#fff" stroke-width="0"/><ellipse rx="57.46145" ry="57.46145" transform="matrix(.915691 0 0 0.915691 150 150.000155)" stroke-width="0"/><path d="M44.92,26.92L21.66,67.22c-1.041244,1.81171-1.038969,4.040804.005971,5.850385s2.97442,2.925812,5.064029,2.929615h46.54c2.097583.003896,4.037275-1.11366,5.085963-2.930285s1.046414-4.055225-.005963-5.869715L55.08,26.92c-1.045448-1.818068-2.98278-2.938836-5.08-2.938836s-4.034552,1.120768-5.08,2.938836Z" transform="matrix(-.931265 0 0-.931265 196.573283 196.554479)" fill="#fff"/></svg>
